<svg id="Capa_1" data-name="Capa 1" xmlns="http://www.w3.org/2000/svg" viewBox="0 0 42 168"><defs><style>.cls-1{fill:#ec7f39;}.cls-2{fill:#fff;}</style></defs><circle class="cls-1" cx="21" cy="21" r="21"/><path class="cls-2" d="M21,7A10.82,10.82,0,0,0,10.18,17.81c0,5.09,7.87,14.31,10.18,16.91a.85.85,0,0,0,1.28,0C24,32.12,31.82,22.9,31.82,17.81A10.82,10.82,0,0,0,21,7Zm0,15.65a5.35,5.35,0,1,1,5.35-5.35A5.36,5.36,0,0,1,21,22.64Z"/><circle class="cls-1" cx="21" cy="63" r="21"/><path class="cls-2" d="M9.08,52.52l9.73,11a2.92,2.92,0,0,0,4.38,0l9.57-10.85a1,1,0,0,1,.27-.22,3.47,3.47,0,0,0-1.33-.27H10.3A3.34,3.34,0,0,0,9,52.47S9.06,52.5,9.08,52.52Z"/><path class="cls-2" d="M34.5,53.77a.84.84,0,0,1-.19.31L24.75,64.94a5,5,0,0,1-7.5,0l-9.73-11,0-.07A3.3,3.3,0,0,0,7,55.52v15a3.31,3.31,0,0,0,3.31,3.3H31.7A3.31,3.31,0,0,0,35,70.48v-15A3.29,3.29,0,0,0,34.5,53.77Z"/><circle class="cls-1" cx="21" cy="105" r="21"/><path class="cls-2" d="M30.5,111.38v-17A3.43,3.43,0,0,0,27.07,91H14.93a3.43,3.43,0,0,0-3.43,3.42v17ZM21,93.12a1,1,0,1,1-1,1A1,1,0,0,1,21,93.12Z"/><path class="cls-2" d="M11.5,113.43v2.16A3.43,3.43,0,0,0,14.93,119H27.07a3.43,3.43,0,0,0,3.43-3.42v-2.16Zm9.5,3.68a1,1,0,1,1,1-1A1,1,0,0,1,21,117.11Z"/><circle class="cls-1" cx="21" cy="147" r="21"/><path class="cls-2" d="M27.52,139.06A1.44,1.44,0,1,0,29,140.5,1.43,1.43,0,0,0,27.52,139.06Z"/><path class="cls-2" d="M21.1,140.91A6.06,6.06,0,1,0,27.16,147,6.07,6.07,0,0,0,21.1,140.91Zm0,9.94A3.88,3.88,0,1,1,25,147,3.88,3.88,0,0,1,21.1,150.85Z"/><path class="cls-2" d="M25.92,159.28H16.08a7.4,7.4,0,0,1-7.39-7.39v-9.83a7.41,7.41,0,0,1,7.39-7.4h9.84a7.41,7.41,0,0,1,7.39,7.4v9.83A7.4,7.4,0,0,1,25.92,159.28ZM16.08,137A5.07,5.07,0,0,0,11,142.06v9.83A5.08,5.08,0,0,0,16.08,157h9.84A5.08,5.08,0,0,0,31,151.89v-9.83A5.07,5.07,0,0,0,25.92,137Z"/></svg>