<svg id="Capa_1" data-name="Capa 1" xmlns="http://www.w3.org/2000/svg" viewBox="0 0 35 140"><defs><style>.cls-1{fill:#ed7f39;}.cls-2{fill:#fff;}</style></defs><circle class="cls-1" cx="17.51" cy="17.51" r="17.51"/><path class="cls-2" d="M17.51,5.83a9,9,0,0,0-9,9c0,4.24,6.56,11.93,8.49,14.1A.71.71,0,0,0,18,29c1.93-2.17,8.49-9.86,8.49-14.1A9,9,0,0,0,17.51,5.83Zm0,13A4.46,4.46,0,1,1,22,14.41,4.46,4.46,0,0,1,17.51,18.87Z"/><circle class="cls-1" cx="17.51" cy="52.51" r="17.51"/><path class="cls-2" d="M7.57,43.77,15.68,53a2.44,2.44,0,0,0,3.65,0l8-9a.76.76,0,0,1,.22-.18,2.67,2.67,0,0,0-1.1-.23H8.58a2.63,2.63,0,0,0-1,.21Z"/><path class="cls-2" d="M28.76,44.81a.76.76,0,0,1-.15.26l-8,9a4.17,4.17,0,0,1-6.25,0L6.27,44.91l0-.06a2.75,2.75,0,0,0-.39,1.42V58.74A2.76,2.76,0,0,0,8.58,61.5H26.43a2.77,2.77,0,0,0,2.76-2.76V46.27A2.72,2.72,0,0,0,28.76,44.81Z"/><circle class="cls-1" cx="17.51" cy="87.51" r="17.51"/><path class="cls-2" d="M25.42,92.82V78.68a2.85,2.85,0,0,0-2.85-2.85H12.45a2.86,2.86,0,0,0-2.86,2.85V92.82ZM17.51,77.61a.86.86,0,1,1-.86.85A.85.85,0,0,1,17.51,77.61Z"/><path class="cls-2" d="M9.59,94.54v1.79a2.86,2.86,0,0,0,2.86,2.86H22.57a2.85,2.85,0,0,0,2.85-2.86V94.54Zm7.92,3.06a.86.86,0,1,1,.85-.86A.85.85,0,0,1,17.51,97.6Z"/><circle class="cls-1" cx="17.51" cy="122.51" r="17.51"/><path class="cls-2" d="M22.94,115.88a1.21,1.21,0,1,0,1.21,1.21A1.21,1.21,0,0,0,22.94,115.88Z"/><path class="cls-2" d="M17.59,117.43a5.06,5.06,0,1,0,5.06,5A5.06,5.06,0,0,0,17.59,117.43Zm0,8.29a3.24,3.24,0,1,1,3.24-3.24A3.25,3.25,0,0,1,17.59,125.72Z"/><path class="cls-2" d="M21.6,132.75H13.41a6.18,6.18,0,0,1-6.17-6.17v-8.2a6.17,6.17,0,0,1,6.17-6.16H21.6a6.17,6.17,0,0,1,6.17,6.16v8.2A6.18,6.18,0,0,1,21.6,132.75Zm-8.19-18.6a4.24,4.24,0,0,0-4.24,4.23v8.2a4.24,4.24,0,0,0,4.24,4.24H21.6a4.24,4.24,0,0,0,4.24-4.24v-8.2a4.24,4.24,0,0,0-4.24-4.23Z"/></svg>