<svg xmlns="http://www.w3.org/2000/svg" viewBox="0 0 29.63 26"><defs><style>.cls-1{fill:#ed7f39;}</style></defs><g id="Capa_2" data-name="Capa 2"><g id="Capa_1-2" data-name="Capa 1"><path class="cls-1" d="M4,21.55c.61.64,3,3.52,3.48,4.11l.25.34L8,25.65c.43-.59,3.87-5.14,5.05-6.63,1.75-2.17,3.48-4.35,5.27-6.48S22,8.32,23.83,6.27s3.81-4,5.8-6L29.37,0a28.17,28.17,0,0,0-3.89,2c-1.23.76-2.41,1.59-3.55,2.46a54.84,54.84,0,0,0-6.34,5.73,70.59,70.59,0,0,0-5.46,6.5L8.9,18.45c-.4.59-.79,1.18-1.17,1.78-.23.35-.45.71-.67,1.07-.52-.41-1.06-.8-1.6-1.17a22.44,22.44,0,0,0-2.52-1.44,12.86,12.86,0,0,0-2.74-1L0,18a23.76,23.76,0,0,1,2.09,1.69C2.75,20.27,3.39,20.9,4,21.55Z"/></g></g></svg>